<svg width="174" height="72" viewBox="0 0 174 72" fill="none" xmlns="http://www.w3.org/2000/svg">
<g clip-path="url(#clip0_4706_51)">
<path d="M21.261 14.3386C8.77451 14.3386 0 23.8286 0 36.5309C0 49.2333 8.77451 58.6365 21.261 58.6365C33.7476 58.6365 42.4356 49.2333 42.4356 36.5309C42.4356 23.8286 33.6611 14.3386 21.261 14.3386ZM21.1746 51.1834C12.9921 51.1834 8.52172 44.7454 8.52172 36.5309C8.52172 28.3165 13.0786 21.8785 21.261 21.8785C29.4435 21.8785 34.0004 28.3165 34.0004 36.5309C34.0004 44.7454 29.2772 51.1834 21.1746 51.1834Z" fill="#421894"></path>
<path d="M171.831 21.6247V14.5055H163.103V0H154.848V37.8332C154.848 41.3795 155.659 44.8923 157.342 48.0111C158.779 50.6625 160.728 52.9264 163.103 54.6829C166.11 56.9068 169.789 58.3093 173.94 58.6365V51.1433C172.563 50.9697 170.714 50.5089 168.898 49.3201C163.243 45.6069 163.103 38.1805 163.097 37.3457V21.6247H171.825H171.831Z" fill="#421894"></path>
<path d="M95.3488 51.1834C103.445 51.1834 108.175 44.9124 108.175 36.5309C108.175 28.1495 103.618 21.8785 95.4353 21.8785C87.2528 21.8785 82.6959 28.3165 82.6959 36.5309C82.6959 44.7454 87.1663 51.1834 95.3488 51.1834Z" fill="#421894"></path>
<path d="M79.9285 20.8901V0H71.6729V18.5526C68.1937 15.8813 63.7831 14.3452 58.7872 14.3452C46.3006 14.3452 37.5261 23.8286 37.5261 36.5376C37.5261 49.2466 46.3006 58.6432 58.7872 58.6432C63.7831 58.6432 68.187 57.1138 71.6729 54.4625C73.8681 52.7929 75.6909 50.6625 77.0679 48.1981C75.2053 44.8656 74.1742 40.8986 74.1742 36.5376C74.1742 30.3 76.2963 24.837 79.9285 20.8968V20.8901ZM58.7073 51.1834C50.5249 51.1834 46.0545 44.7454 46.0545 36.5309C46.0545 28.3165 50.6114 21.8785 58.7938 21.8785C66.9763 21.8785 71.5332 28.3165 71.5332 36.5309C71.5332 44.7454 66.81 51.1834 58.7073 51.1834Z" fill="#421894"></path>
<path d="M147.676 32.7109C147.071 29.3717 146.339 25.3312 143.286 21.578C142.973 21.1906 141.749 19.7347 139.767 18.2788C136.347 15.7811 132.07 14.3452 127.247 14.3452C120.648 14.3452 115.086 17.0032 111.308 21.3843C114.661 25.2845 116.61 30.5537 116.61 36.5376C116.61 42.5215 114.534 48.0913 110.989 52.0048V57.2474H119.244V24.6634C121.293 22.907 123.981 21.8785 127.247 21.8785C135.429 21.8785 139.986 28.3165 139.986 36.5309V57.2474H148.242V39.583C148.242 36.5643 147.963 34.3271 147.67 32.7109H147.676Z" fill="#421894"></path>
<path d="M41.1717 65.5954H43.367C44.6376 65.5887 45.5423 66.4302 45.5423 67.6457C45.5423 68.8612 44.6975 69.696 43.5067 69.696H42.1695V71.8932H41.165V65.5954H41.1717ZM42.1762 66.5103V68.7677H43.4934C44.1054 68.7677 44.5245 68.3068 44.5245 67.6457C44.5245 66.9845 44.0389 66.5103 43.3537 66.5103H42.1829H42.1762Z" fill="#421894"></path>
<path d="M47.3717 65.5954H48.3762V70.9648H51.2367V71.8931H47.3717V65.5954Z" fill="#421894"></path>
<path d="M54.8423 65.5954H55.9067L58.4146 71.8931H57.3503L56.7316 70.317H54.0174L53.3987 71.8931H52.3344L54.8423 65.5954ZM56.3857 69.4155L55.3745 66.8242L54.37 69.4155H56.3857Z" fill="#421894"></path>
<path d="M60.1443 65.5954H61.1821L64.5615 70.2169V65.5954H65.5726V71.8931H64.5615L61.1488 67.2183V71.8931H60.1443V65.5954Z" fill="#421894"></path>
<path d="M67.5817 68.7476C67.5817 66.8376 68.8789 65.4886 70.7282 65.4886C72.5776 65.4886 73.8748 66.8376 73.8748 68.7476C73.8748 70.6577 72.5843 72.0067 70.7482 72.0067C68.9121 72.0067 67.5883 70.6643 67.5883 68.7476H67.5817ZM72.8504 68.7476C72.8504 67.3919 71.9656 66.4169 70.7282 66.4169C69.4909 66.4169 68.6061 67.3852 68.6061 68.7476C68.6061 70.11 69.5042 71.0784 70.7482 71.0784C71.9922 71.0784 72.8504 70.1167 72.8504 68.7476Z" fill="#421894"></path>
<path d="M75.5312 70.5642L76.5158 70.2569C76.6755 70.7178 77.1611 71.1118 77.8396 71.1185C78.6379 71.1185 79.1368 70.7578 79.1368 70.2102C79.1368 69.736 78.7044 69.4155 78.0459 69.2485L77.2875 69.0615C76.4027 68.8278 75.7441 68.2801 75.7441 67.3518C75.7441 66.1831 76.5225 65.4886 77.9394 65.4886C79.1502 65.4886 79.8952 66.103 80.1813 66.8977L79.2034 67.2116C79.0238 66.7241 78.5581 66.3634 77.8862 66.3634C77.2143 66.3634 76.7686 66.7241 76.7686 67.2984C76.7686 67.7726 77.1079 68.0264 77.6401 68.1532L78.3984 68.3402C79.536 68.6207 80.1813 69.3554 80.1813 70.1568C80.1813 71.2253 79.3896 71.9933 77.9328 71.9933C76.6156 71.9933 75.7308 71.3121 75.5312 70.5508V70.5642Z" fill="#421894"></path>
<path d="M84.9111 68.7476C84.9111 66.8376 86.2083 65.4886 88.0577 65.4886C89.9071 65.4886 91.2043 66.8376 91.2043 68.7476C91.2043 70.6577 89.9137 72.0067 88.0777 72.0067C86.2416 72.0067 84.9178 70.6643 84.9178 68.7476H84.9111ZM90.1798 68.7476C90.1798 67.3919 89.2951 66.4169 88.0577 66.4169C86.8204 66.4169 85.9356 67.3852 85.9356 68.7476C85.9356 70.11 86.8337 71.0784 88.0777 71.0784C89.3217 71.0784 90.1798 70.1167 90.1798 68.7476Z" fill="#421894"></path>
<path d="M93.2067 65.5954H95.1691C97.0052 65.5954 98.3157 66.891 98.3157 68.7409C98.3157 70.5908 97.0052 71.8865 95.1691 71.8865H93.2067V65.5887V65.5954ZM94.2112 66.537V70.9448H95.1691C96.3665 70.9448 97.2912 69.9831 97.2912 68.7409C97.2912 67.4987 96.3665 66.537 95.1691 66.537H94.2112Z" fill="#421894"></path>
<path d="M99.9257 68.7476C99.9257 66.8376 101.223 65.4886 103.072 65.4886C104.922 65.4886 106.219 66.8376 106.219 68.7476C106.219 70.6577 104.928 72.0067 103.092 72.0067C101.256 72.0067 99.9323 70.6643 99.9323 68.7476H99.9257ZM105.194 68.7476C105.194 67.3919 104.31 66.4169 103.072 66.4169C101.835 66.4169 100.95 67.3852 100.95 68.7476C100.95 70.11 101.848 71.0784 103.092 71.0784C104.336 71.0784 105.194 70.1167 105.194 68.7476Z" fill="#421894"></path>
<path d="M108.228 65.5954H109.266L112.645 70.2169V65.5954H113.656V71.8931H112.645L109.232 67.2183V71.8931H108.228V65.5954Z" fill="#421894"></path>
<path d="M117.355 66.5237H115.419V65.5954H120.295V66.5237H118.359V71.8931H117.355V66.5237Z" fill="#421894"></path>
<path d="M121.666 68.7476C121.666 66.8376 122.963 65.4886 124.812 65.4886C126.662 65.4886 127.959 66.8376 127.959 68.7476C127.959 70.6577 126.668 72.0067 124.832 72.0067C122.996 72.0067 121.672 70.6643 121.672 68.7476H121.666ZM126.934 68.7476C126.934 67.3919 126.05 66.4169 124.812 66.4169C123.575 66.4169 122.69 67.3852 122.69 68.7476C122.69 70.11 123.588 71.0784 124.832 71.0784C126.076 71.0784 126.934 70.1167 126.934 68.7476Z" fill="#421894"></path>
<path d="M129.961 65.5954H130.966V70.9648H133.826V71.8931H129.961V65.5954Z" fill="#421894"></path>
<path d="M135.203 68.7476C135.203 66.8376 136.5 65.4885 138.35 65.4885C140.199 65.4885 141.496 66.8376 141.496 68.7476C141.496 70.6576 140.206 72.0067 138.37 72.0067C136.534 72.0067 135.21 70.6643 135.21 68.7476H135.203ZM140.472 68.7476C140.472 67.3919 139.587 66.4168 138.35 66.4168C137.112 66.4168 136.228 67.3852 136.228 68.7476C136.228 70.11 137.126 71.0784 138.37 71.0784C139.614 71.0784 140.472 70.1167 140.472 68.7476ZM138.716 64.0527H139.887L138.696 65.1947H137.645L138.709 64.0527H138.716Z" fill="#421894"></path>
<path d="M143.106 68.7543C143.106 66.8376 144.457 65.4886 146.379 65.4886C147.457 65.4886 148.395 66.0362 148.887 66.8042L148.069 67.3251C147.736 66.7975 147.031 66.4169 146.373 66.4169C145.055 66.4169 144.124 67.3785 144.124 68.7543C144.124 70.1301 145.049 71.0851 146.393 71.0851C147.43 71.0851 148.202 70.4105 148.235 69.4221H146.732V68.594H149.207V69.2886C149.18 70.9715 148.016 72.0067 146.373 72.0067C144.457 72.0067 143.1 70.6577 143.1 68.761L143.106 68.7543Z" fill="#421894"></path>
<path d="M151.016 65.5954H152.021V71.8931H151.016V65.5954Z" fill="#421894"></path>
<path d="M154.03 68.7476C154.03 66.8376 155.313 65.4886 157.123 65.4886C158.334 65.4886 159.405 66.1898 159.857 67.2049L158.946 67.5856C158.613 66.891 157.895 66.4169 157.13 66.4169C155.919 66.4169 155.061 67.3786 155.061 68.7476C155.061 70.1167 155.932 71.0851 157.156 71.0851C157.954 71.0851 158.633 70.5842 158.972 69.8362L159.884 70.2236C159.425 71.2787 158.354 72.0067 157.143 72.0067C155.313 72.0067 154.036 70.6577 154.036 68.7476H154.03Z" fill="#421894"></path>
<path d="M161.4 68.7476C161.4 66.8376 162.698 65.4886 164.547 65.4886C166.396 65.4886 167.694 66.8376 167.694 68.7476C167.694 70.6577 166.403 72.0067 164.567 72.0067C162.731 72.0067 161.407 70.6643 161.407 68.7476H161.4ZM166.669 68.7476C166.669 67.3919 165.784 66.4169 164.547 66.4169C163.31 66.4169 162.425 67.3852 162.425 68.7476C162.425 70.11 163.323 71.0784 164.567 71.0784C165.811 71.0784 166.669 70.1167 166.669 68.7476Z" fill="#421894"></path>
<path d="M169.35 70.5642L170.335 70.2569C170.494 70.7178 170.98 71.1118 171.658 71.1185C172.457 71.1185 172.956 70.7578 172.956 70.2102C172.956 69.736 172.523 69.4155 171.865 69.2485L171.106 69.0615C170.221 68.8278 169.563 68.2801 169.563 67.3518C169.563 66.1831 170.341 65.4886 171.758 65.4886C172.969 65.4886 173.714 66.103 174 66.8977L173.022 67.2116C172.842 66.7241 172.377 66.3634 171.705 66.3634C171.033 66.3634 170.587 66.7241 170.587 67.2984C170.587 67.7726 170.927 68.0264 171.459 68.1532L172.217 68.3402C173.355 68.6207 174 69.3554 174 70.1568C174 71.2253 173.215 71.9933 171.751 71.9933C170.434 71.9933 169.55 71.3121 169.35 70.5508V70.5642Z" fill="#421894"></path>
</g>
<defs>
<clipPath id="clip0_4706_51">
<rect width="174" height="72" fill="white"></rect>
</clipPath>
</defs>
</svg>